ply
format ascii 1.0
element vertex 18
property float x
property float y
property float z
property uchar red
property uchar green
property uchar blue
end_header
0.101775 -0.116974 2.232673 31 148 121
0.316780 -0.157202 2.515526 28 114 147
0.386044 -0.803549 2.484374 143 30 198
0.490927 -0.358904 3.116611 29 228 201
0.492063 -0.354031 3.112422 121 139 205
0.508408 -0.607592 3.092348 132 45 39
0.636513 -0.881986 3.200909 40 51 71
0.854504 -0.433922 3.683523 248 24 16
0.854504 -0.433922 3.683523 38 222 45
0.854357 -0.433732 3.681667 194 189 133
0.854357 -0.433732 3.681667 73 35 196
0.947457 -0.448396 3.713318 221 61 70
0.557018 0.346636 2.145269 181 133 224
0.557835 0.343565 2.134434 7 93 233
0.829598 0.135622 2.560426 161 125 16
1.579407 -1.017712 3.983353 177 237 40
1.579013 -1.017190 3.982159 64 253 51
0.873159 -0.407097 1.773800 90 104 155
